ply
format ascii 1.0
comment Synthetic cube lattice for Open3D demo
element vertex 56
property float x
property float y
property float z
end_header
-0.4 -0.4 -0.4
-0.4 -0.4 -0.2
-0.4 -0.4 0.0
-0.4 -0.4 0.2
-0.4 -0.4 0.4
-0.4 -0.2 -0.4
-0.4 -0.2 0.4
-0.4 0.0 -0.4
-0.4 0.0 0.4
-0.4 0.2 -0.4
-0.4 0.2 0.4
-0.4 0.4 -0.4
-0.4 0.4 -0.2
-0.4 0.4 0.0
-0.4 0.4 0.2
-0.4 0.4 0.4
-0.2 -0.4 -0.4
-0.2 -0.4 0.4
-0.2 0.4 -0.4
-0.2 0.4 0.4
0.0 -0.4 -0.4
0.0 -0.4 0.4
0.0 0.4 -0.4
0.0 0.4 0.4
0.2 -0.4 -0.4
0.2 -0.4 0.4
0.2 0.4 -0.4
0.2 0.4 0.4
0.4 -0.4 -0.4
0.4 -0.4 -0.2
0.4 -0.4 0.0
0.4 -0.4 0.2
0.4 -0.4 0.4
0.4 -0.2 -0.4
0.4 -0.2 0.4
0.4 0.0 -0.4
0.4 0.0 0.4
0.4 0.2 -0.4
0.4 0.2 0.4
0.4 0.4 -0.4
0.4 0.4 -0.2
0.4 0.4 0.0
0.4 0.4 0.2
0.4 0.4 0.4
-0.4 -0.2 -0.2
-0.4 -0.2 0.2
-0.4 0.2 -0.2
-0.4 0.2 0.2
0.4 -0.2 -0.2
0.4 -0.2 0.2
0.4 0.2 -0.2
0.4 0.2 0.2
-0.2 -0.2 -0.4
-0.2 0.2 -0.4
0.2 -0.2 0.4
0.2 0.2 0.4
