ply
format ascii 1.0
comment Synthetic plane with outliers for Open3D demo
element vertex 36
property float x
property float y
property float z
end_header
-0.4 -0.4 0.00
-0.2 -0.4 0.00
0.0 -0.4 0.00
0.2 -0.4 0.00
0.4 -0.4 0.00
-0.4 -0.2 0.00
-0.2 -0.2 0.01
0.0 -0.2 0.00
0.2 -0.2 -0.01
0.4 -0.2 0.00
-0.4 0.0 0.00
-0.2 0.0 0.00
0.0 0.0 0.00
0.2 0.0 0.00
0.4 0.0 0.00
-0.4 0.2 0.00
-0.2 0.2 -0.01
0.0 0.2 0.00
0.2 0.2 0.01
0.4 0.2 0.00
-0.4 0.4 0.00
-0.2 0.4 0.00
0.0 0.4 0.00
0.2 0.4 0.00
0.4 0.4 0.00
-0.3 -0.3 0.02
-0.1 -0.1 -0.02
0.1 0.1 0.02
0.3 0.3 -0.02
-0.3 0.3 0.01
0.3 -0.3 -0.01
0.0 0.0 0.03
0.65 0.55 0.52
-0.72 0.48 0.61
0.58 -0.66 -0.49
-0.55 -0.58 0.73
