ply
format ascii 1.0
comment Synthetic sphere shell for Open3D demo
element vertex 42
property float x
property float y
property float z
end_header
0.00 0.00 0.50
0.00 0.00 -0.50
0.35 0.00 0.35
-0.35 0.00 0.35
0.00 0.35 0.35
0.00 -0.35 0.35
0.35 0.00 -0.35
-0.35 0.00 -0.35
0.00 0.35 -0.35
0.00 -0.35 -0.35
0.50 0.00 0.00
-0.50 0.00 0.00
0.00 0.50 0.00
0.00 -0.50 0.00
0.25 0.25 0.35
-0.25 0.25 0.35
0.25 -0.25 0.35
-0.25 -0.25 0.35
0.25 0.25 -0.35
-0.25 0.25 -0.35
0.25 -0.25 -0.35
-0.25 -0.25 -0.35
0.35 0.35 0.00
-0.35 0.35 0.00
0.35 -0.35 0.00
-0.35 -0.35 0.00
0.44 0.18 0.16
0.44 -0.18 -0.16
-0.44 0.18 0.16
-0.44 -0.18 -0.16
0.18 0.44 0.16
-0.18 0.44 -0.16
0.18 -0.44 0.16
-0.18 -0.44 -0.16
0.16 0.18 0.44
-0.16 0.18 0.44
0.16 -0.18 -0.44
-0.16 -0.18 -0.44
0.32 0.32 0.18
-0.32 0.32 -0.18
0.32 -0.32 -0.18
-0.32 -0.32 0.18
