ply
format ascii 1.0
comment Synthetic layered ramp for Open3D demo
element vertex 40
property float x
property float y
property float z
end_header
-0.45 -0.30 -0.18
-0.25 -0.30 -0.10
-0.05 -0.30 -0.02
0.15 -0.30 0.06
0.35 -0.30 0.14
-0.45 -0.15 -0.16
-0.25 -0.15 -0.08
-0.05 -0.15 0.00
0.15 -0.15 0.08
0.35 -0.15 0.16
-0.45 0.00 -0.14
-0.25 0.00 -0.06
-0.05 0.00 0.02
0.15 0.00 0.10
0.35 0.00 0.18
-0.45 0.15 -0.12
-0.25 0.15 -0.04
-0.05 0.15 0.04
0.15 0.15 0.12
0.35 0.15 0.20
-0.45 0.30 -0.10
-0.25 0.30 -0.02
-0.05 0.30 0.06
0.15 0.30 0.14
0.35 0.30 0.22
-0.35 -0.22 0.18
-0.15 -0.22 0.25
0.05 -0.22 0.31
0.25 -0.22 0.37
-0.35 -0.02 0.22
-0.15 -0.02 0.28
0.05 -0.02 0.34
0.25 -0.02 0.40
-0.35 0.18 0.26
-0.15 0.18 0.32
0.05 0.18 0.38
0.25 0.18 0.44
0.62 0.48 0.55
-0.58 -0.52 -0.44
0.71 -0.38 0.60
